<?xml version="1.0" standalone="no"?>
<!DOCTYPE svg PUBLIC "-//W3C//DTD SVG 20010904//EN"
 "http://www.w3.org/TR/2001/REC-SVG-20010904/DTD/svg10.dtd">
<svg version="1.0" xmlns="http://www.w3.org/2000/svg"
 width="1065.000000pt" height="1065.000000pt" viewBox="0 0 1065.000000 1065.000000"
 preserveAspectRatio="xMidYMid meet">
<metadata>
Created by potrace 1.11, written by Peter Selinger 2001-2013
</metadata>
<g transform="translate(0.000000,1065.000000) scale(0.100000,-0.100000)"
fill="#000000" stroke="none">
<path d="M4955 8910 c-431 -27 -911 -126 -1285 -265 -228 -85 -497 -211 -676
-316 -128 -75 -391 -255 -516 -351 -300 -234 -696 -636 -935 -948 -176 -231
-319 -460 -445 -715 -173 -352 -280 -662 -357 -1045 l-27 -135 -53 -55 c-116
-121 -163 -289 -128 -456 l13 -61 -163 -118 c-180 -132 -224 -180 -293 -320
-69 -141 -95 -301 -79 -474 22 -240 118 -431 313 -627 300 -300 887 -520 1441
-541 426 -16 782 95 1091 339 34 26 68 48 75 48 8 0 124 -23 259 -51 241 -50
247 -51 375 -46 157 7 263 32 391 92 160 76 295 193 406 350 115 162 159 292
159 470 1 256 -68 454 -214 613 -25 26 -34 42 -25 42 11 0 17 18 22 73 20 215
105 388 275 557 138 137 283 223 450 267 82 22 118 26 251 26 183 1 248 -12
387 -79 217 -104 420 -309 510 -514 18 -41 33 -80 33 -86 0 -6 -39 -21 -87
-34 -193 -51 -354 -142 -479 -272 -87 -90 -144 -174 -199 -292 -99 -212 -130
-339 -123 -516 4 -97 10 -130 38 -215 134 -393 384 -646 762 -769 213 -69 241
-71 581 -46 l301 23 30 -39 c303 -378 699 -588 1278 -674 106 -16 185 -20 391
-20 l258 0 482 130 481 130 99 66 c124 83 275 227 357 341 123 172 219 410
250 624 18 119 8 293 -20 384 -48 152 -75 190 -248 350 l-159 148 15 46 c10
31 15 87 16 171 0 115 -2 132 -30 212 -41 115 -127 242 -239 354 l-92 91 -17
139 c-95 769 -392 1483 -871 2094 -144 184 -220 268 -494 544 -368 371 -637
587 -981 788 -516 301 -1043 473 -1680 548 -198 24 -654 34 -875 20z m716
-755 c478 -48 835 -148 1244 -350 410 -203 688 -407 1066 -784 343 -342 523
-577 711 -927 193 -359 308 -692 382 -1111 5 -30 4 -32 -35 -38 -106 -18 -254
-125 -325 -234 l-38 -59 -55 50 c-102 93 -237 172 -354 208 -115 34 -172 42
-321 45 l-149 3 -28 99 c-114 406 -327 747 -676 1084 -234 225 -445 377 -695
499 -156 77 -366 153 -508 184 -41 9 -91 21 -110 26 -19 5 -100 16 -180 26
-172 19 -555 15 -710 -9 -470 -72 -865 -243 -1224 -531 -129 -103 -381 -353
-478 -476 -158 -199 -299 -453 -374 -675 -20 -60 -40 -114 -44 -118 -5 -5 -43
-1 -86 9 -112 26 -350 26 -454 0 -78 -19 -219 -80 -270 -116 l-29 -21 -11 43
c-21 77 -90 196 -139 240 -52 46 -163 103 -220 113 l-38 6 29 97 c129 415 350
828 634 1182 196 245 589 628 826 807 534 403 1153 651 1793 717 83 9 164 17
180 19 92 11 547 5 686 -8z m-4129 -3095 c89 -27 158 -83 193 -154 21 -44 31
-89 48 -223 11 -92 22 -170 24 -172 2 -3 41 32 86 76 91 90 151 124 300 174
l92 31 175 -6 c297 -11 250 7 462 -182 l185 -163 39 -130 c24 -81 44 -131 52
-131 7 0 66 13 130 29 l117 29 235 -12 235 -11 57 -39 c50 -33 71 -59 153
-187 l96 -148 -21 -193 c-22 -188 -23 -194 -58 -248 -130 -203 -389 -340 -642
-340 -71 0 -371 45 -543 81 l-98 21 -217 -124 -217 -124 -530 -17 c-681 -23
-666 -23 -767 9 -148 46 -435 202 -553 300 -104 87 -214 259 -249 390 -9 32
-19 104 -22 159 l-6 100 56 133 c86 204 121 254 214 301 47 24 149 51 192 51
l32 0 -8 93 c-14 160 -1 237 59 352 40 76 154 196 221 234 49 27 122 54 176
65 57 11 236 -3 302 -24z m6413 -442 l250 -32 195 -124 195 -124 69 -99 c38
-55 72 -96 76 -92 4 4 26 55 49 113 81 204 209 329 384 376 79 21 232 18 308
-6 143 -44 243 -128 355 -297 l78 -118 11 -135 11 -135 -29 -93 c-16 -52 -26
-100 -24 -107 3 -7 21 -15 39 -19 46 -8 257 -179 280 -226 19 -39 78 -374 78
-442 0 -106 -68 -295 -152 -424 -62 -95 -206 -241 -304 -307 -71 -49 -72 -49
-490 -154 l-419 -105 -215 5 c-347 9 -606 70 -891 212 -158 79 -201 110 -432
311 l-222 194 -100 -8 c-55 -4 -226 -7 -380 -7 -274 0 -282 1 -377 27 -179 50
-300 119 -408 234 -72 76 -122 159 -165 276 -68 182 -68 263 -2 433 29 75 44
96 151 214 112 124 126 135 228 191 60 33 121 60 136 60 15 0 138 -13 273 -29
l246 -29 133 -61 c73 -33 134 -60 136 -58 1 1 48 74 104 162 56 88 121 180
144 205 111 121 232 201 356 234 72 19 41 21 325 -16z"/>
</g>
</svg>
